<svg viewBox="0 0 36 36" fill="none" xmlns="http://www.w3.org/2000/svg">
  <defs>
    <linearGradient id="flame" x1="0" y1="0" x2="0" y2="1">
      <stop offset="0%" stop-color="#EDAA85"/>
      <stop offset="100%" stop-color="#D97757"/>
    </linearGradient>
  </defs>
  <circle cx="9" cy="4.5" r="3" fill="#D97757"/>
  <circle cx="27" cy="4.5" r="3" fill="#D97757"/>
  <path d="M5.5 19 L5.5 12.5 C5.5 6.5 10.5 2.5 18 2.5 C25.5 2.5 30.5 6.5 30.5 12.5 L30.5 19 C30.5 21.5 28.5 23.5 26 23.5 L10 23.5 C7.5 23.5 5.5 21.5 5.5 19Z" fill="#D97757"/>
  <path d="M13 12.5 L15 14.5 L13 16.5" stroke="white" stroke-width="1.8" stroke-linecap="round" stroke-linejoin="round"/>
  <path d="M23 12.5 L21 14.5 L23 16.5" stroke="white" stroke-width="1.8" stroke-linecap="round" stroke-linejoin="round"/>
  <path d="M10.5 26 C10.5 24.4 11.3 24 12.75 24 C14.2 24 15 24.4 15 26 C15 27.3 14.2 29 12.75 34 C11.3 29 10.5 27.3 10.5 26Z" fill="url(#flame)"/>
  <path d="M21 26 C21 24.4 21.8 24 23.25 24 C24.7 24 25.5 24.4 25.5 26 C25.5 27.3 24.7 29 23.25 34 C21.8 29 21 27.3 21 26Z" fill="url(#flame)"/>
</svg>
