<svg viewBox="3 0 30 25" fill="none" stroke="currentColor" stroke-linecap="round" stroke-linejoin="round" xmlns="http://www.w3.org/2000/svg">
  <defs>
    <clipPath id="s">
      <circle cx="9" cy="4.5" r="3"/>
      <circle cx="27" cy="4.5" r="3"/>
      <path d="M5.5 19 L5.5 12.5 C5.5 6.5 10.5 2.5 18 2.5 C25.5 2.5 30.5 6.5 30.5 12.5 L30.5 19 C30.5 21.5 28.5 23.5 26 23.5 L10 23.5 C7.5 23.5 5.5 21.5 5.5 19Z"/>
    </clipPath>
  </defs>
  <g clip-path="url(#s)" stroke-width="4">
    <path d="M7.2779 6.9565 C6.2079 6.2064 5.7465 4.8499 6.1373 3.6029 C6.528 2.3559 7.681 1.5054 8.9878 1.5 C10.2945 1.4947 11.4544 2.3358 11.8553 3.5796"/>
    <path d="M24.1447 3.5796 C24.5456 2.3358 25.7055 1.4947 27.0122 1.5 C28.319 1.5054 29.472 2.3559 29.8627 3.6029 C30.2535 4.8499 29.7921 6.2064 28.7221 6.9565"/>
    <path d="M5.5 19 L5.5 12.5 C5.5 6.5 10.5 2.5 18 2.5 C25.5 2.5 30.5 6.5 30.5 12.5 L30.5 19 C30.5 21.5 28.5 23.5 26 23.5 L10 23.5 C7.5 23.5 5.5 21.5 5.5 19Z"/>
  </g>
  <path d="M13 12.5 L15 14.5 L13 16.5" stroke-width="2"/>
  <path d="M23 12.5 L21 14.5 L23 16.5" stroke-width="2"/>
</svg>
